Patient4_TMGait_0pt8_01_right_47_EMG.mot
version=1
nRows=13
nColumns=33
inDegrees=no
endheader
time	1LAddLong	2LGlutMax	3LGlutMed	4LIliopsoas	5LSemiMemb	6LBicFemLong	7LRecFem	8LVastMed	9LVastLat	10LGasMed	11LTibAnt	12lTibPost	13LPeroneusLong	14LSol	15LExtDigLong	16LFlexDigLong	17RAddLong	18RGlutMax	19RGlutMed	20RIliopsoas	21RSemiMemb	22RBicFemLong	23RRecFem	24RVastMed	25RVastLat	26RGasMed	27RTibAnt	28RTibPost	29RPeroneusLong	30RSol	31RExtDigLong	32RFlexDigLong
53.69	0.000458	0.074005	0.061035	0.003357	0.013733	-0.055847	0.098877	0.011292	-0.11246	-0.016785	0.18204	-0.026245	-0.08667	0.045624	0.086365	0.002594	0.044556	0.19699	-0.13397	0.10284	0.35553	0.082092	-0.40192	-0.029602	0.10971	0.003967	-0.81924	-0.028839	0.08316	-0.49774	-0.005646	-0.006104
53.691	-0.001221	0.05127	0.029144	0.009308	-0.022583	-0.13092	0.056152	0.03006	0.002747	-0.00473	0.089111	-0.017395	-0.019684	0.005188	0.47516	0.021515	0.038757	0.18707	-0.35263	-0.034485	0.38116	0.11719	-0.37186	0.04364	0.073242	0.002747	-0.038757	-0.095367	-0.56213	-0.049133	-0.004578	-0.017242
53.692	-0.01297	0.048523	-0.032196	-0.002899	-0.15121	0.025024	-0.014191	0.058594	0.053864	-0.003052	0.11154	-0.021057	0.03006	0.057678	0.56381	-0.001678	-0.00946	0.15259	-0.18799	-0.058289	0.39871	0.082245	-0.336	0.019073	0.073395	-0.011444	0.35965	0.038605	0.33218	0.42221	-0.002594	-0.018768
53.693	-0.026398	-0.007172	-0.029755	0.001831	-0.21271	0.19455	-0.092926	0.066528	-0.13077	-0.047302	-0.038757	-0.025787	0.14984	0.093079	0.29938	0.015106	0.014954	0.19791	-0.14984	-0.063934	0.41702	0.024719	-0.3244	0.014648	0.046997	0.000153	0.024414	0.026855	0.36804	0.29129	-0.005188	-0.006256
53.694	-0.019989	-0.035858	0.014191	0.008087	-0.1384	-0.082855	-0.23666	0.05127	-0.36621	-0.000458	-0.13886	-0.017242	0.13916	0.073547	-0.5423	0.00824	0.042419	0.18021	-0.2388	-0.040436	0.41809	-0.078888	-0.31967	0.029602	0.029755	-0.006714	0.007019	0.001373	-0.15182	0.16129	-0.001678	-0.015411
53.695	-0.021057	-0.037994	0.016174	0.000305	0.071259	-0.56366	-0.32272	0.024567	-0.62897	0.055389	-0.078735	-0.009613	0.27496	0.093231	-0.31616	-0.012512	0.028381	0.16113	-0.47363	0.016785	0.42206	-0.16937	-0.28976	-0.010529	0.006104	-0.011749	0.063019	-0.001984	-0.052643	0.10529	-0.001831	-0.015717
53.696	-0.001526	-0.048065	0.066833	0.002594	0.2269	-0.3566	-0.23468	0.011902	-0.63263	0.052338	-0.22537	-0.007782	0.3093	0.15625	0.17029	-0.009308	0.017548	0.1593	-0.16678	0.10574	0.4274	-0.13168	-0.30182	-0.010223	-0.025177	-0.006256	-0.061035	-0.003204	-0.15717	0.19119	0.000763	-0.010681
53.697	-0.012512	-0.050201	-0.012665	0	0.20126	-0.14557	0.1152	0.011292	-0.58746	0.003967	-0.19455	-0.009613	0.056763	0.21332	0.12344	0.00412	-0.00885	0.1532	-0.13641	0.13596	0.40405	-0.037537	-0.24139	-0.066223	-0.030212	-0.006409	-0.10147	-0.002136	0.34103	0.22018	-0.003052	-0.016785
53.698	-0.025024	-0.11337	-0.079346	-0.001221	0.091553	-0.018311	0.24628	0.02594	-0.26977	-0.023956	-0.068665	-0.002289	-0.12573	0.177	-0.4361	-0.009918	-0.014954	0.14648	-0.37476	0.042572	0.38589	-0.040283	-0.23956	-0.09613	-0.043182	0.001984	-0.13672	0.00412	0.52078	0.076752	-0.002136	-0.010834
53.699	-0.013275	-0.14465	-0.008087	-0.014343	0.003967	0.000458	0.25131	0.042114	-0.052338	-0.019531	-0.007324	0.005493	-0.24796	0.19821	-0.51315	-0.015106	-0.009308	0.11749	-0.22415	-0.025024	0.38589	0.021973	-0.23758	-0.12009	-0.059509	-0.001831	-0.016174	-0.002289	0.44647	-0.10239	-0.00412	-0.009766
53.7	0.00473	-0.21332	-0.007935	-0.001221	-0.040894	0.073853	0.3009	0.049286	0.011749	-0.050201	0.14633	0.004883	-0.28473	0.15152	-0.48767	0.007324	-0.005493	0.22415	-0.17716	-0.093994	0.38513	0.064087	-0.22324	-0.097198	-0.049438	-0.000458	0.23102	-0.002899	0.5217	-0.12146	-0.004272	-0.016479
53.701	-0.005951	-0.26474	-0.039215	0.01358	-0.012665	0.05188	0.21668	0.027618	0.001678	-0.037231	0.14313	0.00473	0.012817	0.021973	-0.052643	-0.003052	-0.005798	0.23544	-0.19821	-0.10956	0.40497	0.063934	-0.24582	-0.080261	-0.04837	-0.006866	0.26733	-0.003967	-0.22583	0.033722	-0.00412	-0.011749
53.702	-0.008698	-0.26932	-0.016479	-0.00946	0.103	-0.074005	0.094452	-0.00946	-0.082092	-0.00946	0.044861	0.012817	0.11612	-0.18646	-0.2713	-0.00824	0.003052	0.19043	-0.18601	-0.090637	0.3862	0.013275	-0.2684	-0.074921	-0.049896	-0.00061	0.059052	-0.005035	-0.4628	0.035553	-0.007019	-0.016937
